<svg width="78" height="24" viewBox="0 0 78 24" fill="none" xmlns="http://www.w3.org/2000/svg">
<circle cx="12" cy="12" r="12" fill="#2796F3"/>
<circle cx="12" cy="12" r="12" fill="url(#paint0_radial_1_11347)"/>
<path fill-rule="evenodd" clip-rule="evenodd" d="M16.2426 6.76184C13.8995 4.41272 10.1005 4.41272 7.75736 6.76184C5.41421 9.11096 5.41421 12.9196 7.75736 15.2688L8.17654 15.689C8.66763 16.1814 9.46386 16.1814 9.95496 15.689C10.4461 15.1967 10.4461 14.3984 9.95496 13.906L9.53579 13.4858C8.17483 12.1214 8.17483 9.90922 9.53578 8.5448C10.8967 7.18038 13.1033 7.18038 14.4642 8.5448C15.8252 9.90922 15.8252 12.1214 14.4642 13.4858L11.1108 16.8478C10.6197 17.3401 10.6197 18.1384 11.1108 18.6307C11.6019 19.1231 12.3981 19.1231 12.8892 18.6307L16.2426 15.2688C18.5858 12.9196 18.5858 9.11097 16.2426 6.76184ZM12 12.6963C12.926 12.6963 13.6767 11.9437 13.6767 11.0153C13.6767 10.0869 12.926 9.33432 12 9.33432C11.074 9.33432 10.3233 10.0869 10.3233 11.0153C10.3233 11.9437 11.074 12.6963 12 12.6963Z" fill="white"/>
<path fill-rule="evenodd" clip-rule="evenodd" d="M31.7844 3H36.8894C38.5917 3 40.0313 4.31689 39.9926 6L39.8649 8.55667C39.8338 9.90734 39.0259 11.122 37.784 11.6849L37.6729 11.7353C38.7275 12.0482 39.4419 13.018 39.4196 14.1067L39.1004 17.2059C38.5766 19.4216 37.5688 21 35.4317 21H30L31.7844 3ZM33.7472 13.0588H35.563C36.2087 13.0588 36.7075 13.6198 36.6249 14.2531L36.1874 17.6061C36.1185 18.1341 35.6639 18.5294 35.1256 18.5294H33.2119L33.7472 13.0588ZM35.9505 5.47059H34.461L34.1041 10.5882H35.6366C36.1853 10.5882 36.6451 10.1781 36.7016 9.63837L37.0154 6.63837C37.0807 6.01383 36.5853 5.47059 35.9505 5.47059ZM51.0558 3H42.1338L40.3495 21H43.2045L44.8104 5.47059H47.8439L46.2379 21H49.2714L51.0558 3ZM55.3383 12.7059L54.6246 3H51.7695L53.197 16.7647H54.0892C54.0892 18.3529 53.0186 18.3529 53.0186 18.3529H51.4127L51.2342 21H52.3885C54.3526 21 56.0856 19.7296 56.6567 17.8711L61.2268 3H58.3718L55.6952 12.7059H55.3383ZM69.9703 3H61.5837L61.4052 5.47059H63.9034L62.2974 21H65.1525L66.7584 5.47059H69.7919L69.9703 3ZM73.5357 3H70.6807L68.8997 21H73.7236C75.9155 21 77.7156 19.283 77.8183 17.1176L77.9967 12.6176C78.073 11.0081 76.8124 9.70588 75.1832 9.70588H72.871L73.5357 3ZM72.64 12.1765H73.9211C74.6655 12.1765 75.2447 12.8164 75.1625 13.5482L74.7263 17.4305C74.656 18.0561 74.1214 18.5294 73.4849 18.5294H71.9263L72.64 12.1765Z" fill="#1C2B36"/>
<defs>
<radialGradient id="paint0_radial_1_11347" cx="0" cy="0" r="1" gradientUnits="userSpaceOnUse" gradientTransform="translate(7 7) rotate(43.3922) scale(14.5563 14.1459)">
<stop stop-color="white" stop-opacity="0.64"/>
<stop offset="0.557352" stop-color="#3F88DE" stop-opacity="0.56"/>
<stop offset="0.939738" stop-color="#3F7FDE"/>
</radialGradient>
</defs>
</svg>
