<svg width="32" height="32" viewBox="0 0 32 32" fill="none" xmlns="http://www.w3.org/2000/svg">
<path fill-rule="evenodd" clip-rule="evenodd" d="M15.1796 7H16.8205C17.8732 6.99999 18.7241 6.99998 19.4134 7.0563C20.1237 7.11434 20.7502 7.23713 21.3306 7.53286C22.2505 8.00157 22.9984 8.74948 23.4671 9.66938C23.7629 10.2498 23.8857 10.8763 23.9437 11.5866C24 12.2759 24 13.1268 24 14.1796L24 20.8135C24 21.505 24 22.0923 23.9575 22.5559C23.9147 23.0223 23.8183 23.5372 23.4966 23.9706C23.0579 24.5619 22.3854 24.9351 21.6515 24.9948C21.1136 25.0385 20.6256 24.8481 20.2071 24.6377C19.7912 24.4286 19.2928 24.118 18.7059 23.7522L16.7875 22.5566C16.2478 22.2203 16.1749 22.1905 16.1228 22.1786C16.042 22.1603 15.958 22.1603 15.8772 22.1786C15.8251 22.1905 15.7522 22.2203 15.2125 22.5566L13.2941 23.7522C12.7072 24.118 12.2088 24.4286 11.7929 24.6377C11.3744 24.8481 10.8864 25.0385 10.3485 24.9948C9.61461 24.9351 8.94214 24.5619 8.50337 23.9706C8.18173 23.5372 8.08527 23.0223 8.04248 22.5559C7.99996 22.0923 7.99998 21.505 8 20.8135L8 14.1795C7.99999 13.1268 7.99998 12.2759 8.05631 11.5866C8.11434 10.8763 8.23713 10.2498 8.53286 9.66938C9.00157 8.74948 9.74948 8.00157 10.6694 7.53286C11.2498 7.23713 11.8763 7.11434 12.5866 7.0563C13.2759 6.99998 14.1268 6.99999 15.1796 7ZM12.7494 9.04966C12.1628 9.09759 11.8288 9.18674 11.5774 9.31487C11.0338 9.59184 10.5918 10.0338 10.3149 10.5774C10.1867 10.8288 10.0976 11.1628 10.0497 11.7494C10.0008 12.3478 10 13.1167 10 14.2222V20.7663C10 21.5179 10.001 22.0122 10.0341 22.3732C10.0625 22.6828 10.1071 22.7729 10.1116 22.7816C10.2063 22.9075 10.35 22.9873 10.5069 23.0011C10.5167 23.0003 10.6167 22.9905 10.8946 22.8508C11.2184 22.688 11.6385 22.4274 12.2764 22.0298L14.1547 20.8592C14.1851 20.8403 14.2154 20.8213 14.2457 20.8024C14.6297 20.562 15.0087 20.3248 15.435 20.2281C15.807 20.1438 16.193 20.1438 16.565 20.2281C16.9913 20.3248 17.3703 20.562 17.7543 20.8024C17.7846 20.8213 17.8149 20.8403 17.8453 20.8592L19.7236 22.0298C20.3615 22.4274 20.7816 22.688 21.1054 22.8508C21.3833 22.9905 21.4833 23.0003 21.4931 23.0011C21.65 22.9873 21.7937 22.9075 21.8884 22.7816C21.8929 22.7729 21.9375 22.6828 21.9659 22.3732C21.999 22.0122 22 21.5179 22 20.7663V14.2222C22 13.1167 21.9992 12.3478 21.9503 11.7494C21.9024 11.1628 21.8133 10.8288 21.6851 10.5774C21.4082 10.0338 20.9662 9.59184 20.4226 9.31487C20.1712 9.18674 19.8372 9.09759 19.2506 9.04966C18.6522 9.00078 17.8833 9 16.7778 9H15.2222C14.1167 9 13.3478 9.00078 12.7494 9.04966Z" fill="#7B8FA3"/>
</svg>
